<svg version="1" xmlns="http://www.w3.org/2000/svg" width="1013.333" height="1013.333" viewBox="0 0 760.000000 760.000000"><path d="M198 133.4c-10.1 3-15.4 5.9-21.7 11.9l-5.4 5 2.8 2.9c3.2 3.3 3.5 3-7.1 8.4-12.7 6.5-34.6 12.6-53.6 14.8l-5.5.7-5.7 10.2c-3.1 5.6-5.5 10.3-5.3 10.5.1.2 2.7-.6 5.6-1.8 3-1.1 5.7-2 6.1-2 .3 0 1.2 2.2 1.9 5 .7 2.7 1.5 5 1.8 5 .3 0 1.9-2.3 3.4-5 1.6-2.8 3.4-5 4.2-5 1.4 0 3 7.5 6.2 29 2.6 16.9 2.5 67 0 82.5-3.3 19.6-9.3 41.5-11.5 41.5-.4 0-2.5-2.8-4.5-6.2l-3.6-6.1-1.1 2.7c-.5 1.5-1 3.2-1 3.7 0 1.8-2.5 1.9-7.5.4-2.8-.8-5.4-1.5-5.8-1.5-.5 0 .6 2.7 2.4 6 1.7 3.3 3.6 6 4 6 .5 0 .9.9.9 2 0 1.6-.7 2-3.5 2-2.2 0-3.8.6-4.1 1.4-1.5 3.8 17.8 24.6 32.1 34.7 20.6 14.6 46.3 23.9 73.2 26.6 4.9.5 5.2.4 6.7-2.5 3.3-6.4 13.9-6.4 17.2 0 1.6 3 1.7 3 7.2 2.5 39.7-4.3 76.5-23.3 98.6-50.8 3.6-4.6 6.6-9.1 6.6-10.1 0-1.3-1.1-1.9-4-2.4-2.2-.4-4-.8-4-1 0-.2 1.3-2.2 2.8-4.6 3.3-5.1 5.5-9.8 4.4-9.8-.4 0-2.9.7-5.6 1.5-6.6 2-6.4 2.1-8.2-2.5l-1.6-4-3.9 6c-2.1 3.3-4.2 6-4.7 6-2.6 0-10.3-33.5-12.3-53.4-1.5-15.4-.6-58.3 1.5-72.6 2.7-17.5 4.8-28 5.6-28 .5 0 2.4 2.5 4.4 5.7 2.2 3.4 3.7 5.1 4 4.2.2-.8 1-3.1 1.6-5.2.6-2 1.3-3.7 1.4-3.7.2 0 2.9.9 6.1 2 3.2 1.1 5.9 1.9 6.1 1.8.1-.2-2.4-4.8-5.6-10.3-5.4-9.4-6-10-9.6-10.7-2.2-.4-9.3-1.6-15.9-2.8-6.6-1.2-16.6-3.6-22.2-5.5-9.5-3.2-26.3-10.9-26.3-12.1 0-.2 1-1.8 2.2-3.5l2.2-2.9-4.4-4.5c-5.5-5.6-13.8-10-23.6-12.5s-15-2.5-24.4.4zm10.5 6.6c1.9 3.8 2 3.7-1.4 3.7-2.3 0-2.7-.4-2.4-2.1 1.2-5.6 1.6-5.8 3.8-1.6zm3.5-1.5c0 .8.5 1.5 1 1.5.6 0 1-.7 1-1.5s.5-1.5 1.1-1.5c.7 0 .8.7.4 1.7s-1 2.6-1.2 3.5c-.8 2.8-1.9 2.1-3-1.7-.6-2-.7-3.5-.2-3.5.5 0 .9.7.9 1.5zm6.6 3c-.4 1.4-1 2.5-1.5 2.5-.9 0-.6-2.6.6-6 .9-2.4 1.6.6.9 3.5zm-17.1-1.6c-.3 1.1-.1 2.2.5 2.6 1.6 1 1.2 2.8-.5 2.1-.8-.3-1.5-.1-1.5.4 0 .6-.5 1-1.1 1-.6 0-.8-.8-.4-1.9.3-1.1.1-2.2-.5-2.6-1.6-1-1.2-2.8.5-2.1.8.3 1.5.1 1.5-.4 0-.6.5-1 1.1-1 .6 0 .8.8.4 1.9zm23.5-.9c1.2.8 1 1-.9 1-2.4 0-2.4 0-.5 1.6 1.5 1.2 1.5 1.4.2 1.1-2.4-.8-3 .4-1 1.9 1.4 1.1 1.4 1.3.2 1.4-3.2 0-4.1-1.5-2.9-4.8 1.1-3.3 2.3-3.9 4.9-2.2zm6.7 3.1c.8.8.6 1.9-.6 4-1.6 2.8-3.1 3.8-3.1 2 0-.5.7-1.7 1.6-2.6.9-.9 1.3-1.9 1-2.2-.4-.4-1.3.3-2.2 1.5-2.3 3.3-3.7 2.7-1.9-.8 1.6-3.1 3.3-3.8 5.2-1.9zm-42 1.3c-.3.8.1 2 .9 2.6.8.7 1.4 2 1.4 2.9-.1 1.1-.7.8-2.1-1.2-1.1-1.5-2.5-2.5-3-2.1-1.6 1-.9-.9.9-2.2 2.2-1.7 2.5-1.7 1.9 0zm46.3 2c0 .3-.4.8-1 1.1-.5.3-1 .1-1-.4 0-.6.5-1.1 1-1.1.6 0 1 .2 1 .4zm-47.3 7c-.2.6-1.2 1.2-2.3 1.3-1 .2-1.3 0-.6-.3 2.2-1 1.3-2.5-1.2-1.8-2.8.7-4.3-1.1-2.6-3.1 1.1-1.3 1.6-1.2 4.2.6 1.6 1.2 2.7 2.6 2.5 3.3zm51.9-1.7c-.4.4-1.1.1-1.7-.7-.7-1.1-.8-.9-.7 1 .2 1.7-.3 2.5-1.6 2.8-2.5.5-4.4-1.4-2.8-3 .9-.9 1.2-.8 1.2.5 0 .9.5 1.7 1.1 1.7.6 0 .8-.7.5-1.6-.4-.9-.1-2.3.5-3.1 1.1-1.2 1.4-1.2 2.8.1.8.9 1.1 1.9.7 2.3zm-13.7 3c7.6 3.8 10 6.3 6.2 6.3-4.9 0-3 3 5.6 8.8 7.2 4.9 23.1 13.2 25.2 13.2.8 0 3.3.9 5.5 2 2.3 1 8.1 3.1 13.1 4.5 4.9 1.5 9.2 2.9 9.5 3.1 1.6 1.6-12.4-1.4-23.6-5.1-19.8-6.5-35.5-15-50.6-27.1-3.7-3-7-5.4-7.3-5.4-.4 0-2.3 1.6-4.3 3.5-7.6 7.3-26.8 18.8-41.7 25.2-4.9 2.1-6.8 2.7-17 5.7-6 1.8-17.5 3.9-18.1 3.3-.3-.2 4.9-1.9 11.3-3.7 19.2-5.3 49.1-21 50.1-26.3.2-1.2-.3-1.7-1.7-1.7-5.6 0 2-5.9 11.6-9.1 8.7-2.9 16.8-2 26.2 2.8zm15.6 6.4c-.6 1.8-.5 1.9 1.3 1 1.2-.6 2.3-.7 2.6-.2.3.5-.4 1.1-1.5 1.4-1.6.4-2 1.1-1.6 2.6.7 3-1.1 3.7-2.2.9-.6-1.3-1-1.7-1-1.1-.1 1.4-2.1 1.8-2.1.5 0-1 3.9-7.2 4.6-7.2.3 0 .2.9-.1 2.1zm-25.3 5c17.5 14.1 43.7 26 67.5 30.6 5.1 1 9.3 2 9.2 2.3 0 .3-4.5 4.2-9.9 8.7-6 5-10.2 7.8-10.6 7.2-.4-.6-3.1-2.2-6.1-3.5-3.7-1.7-6-3.5-7.4-5.8-1.1-1.9-3.1-4.1-4.4-5-1.3-.9-3.1-2.9-4.1-4.5-2.8-4.7-5.1-5.2-12.5-2.7-11.4 4-12.3 4-14.2 0-1.8-3.6-6.9-7.4-10.1-7.4-1 0-2.7-1.1-3.8-2.5-1.1-1.4-2.8-2.5-3.9-2.5-1 0-4.5 2.6-7.7 5.8-3.8 3.8-7.4 6.4-10.7 7.6-2.7 1.1-7.1 2.9-9.7 4.1l-4.7 2.3-2.3-4.6c-3-5.8-5-7.1-7.3-4.8-2.4 2.3-8.4 5.3-18.8 9.2l-8.9 3.3-2.4-2.7c-1.3-1.5-2.4-2.9-2.4-3.2 0-.3 3.1-1.1 6.9-1.8 20.6-3.5 49.6-17 66.6-31 2.8-2.3 5.1-4.1 5.2-4.2.2 0 3.1 2.3 6.5 5.1zM175 163c-2.7 2.1-2.1 2.7 1.1 1 2.6-1.4 2.4-.3-.3 2.2-2.3 2-1.8 2 2.7.2.8-.3 1.5-.2 1.5.4 0 1-5.8 3.8-6.3 3.1-3.6-5.1-3.7-5.8-1.5-7.4 3.4-2.3 5.9-1.9 2.8.5zm76.2 4.6c-.4 4.6-1 5.5-2.3 3.1-.7-1.2-1.7-1.6-3-1.2-2.6.9-2.4-.4.8-3.7 3.5-3.6 4.9-3.1 4.5 1.8zm7.6-.5c.2.5.9.6 1.5.2.6-.4.8 0 .4 1-.8 2.1 1.2 3.4 2.4 1.6 1.6-2.6 2-.1.5 3.5-1.6 3.7-3.2 5-2.1 1.7.7-2.3-1.3-3.9-2.1-1.7-.3.9-1.1 1.6-1.6 1.6-1 0-.8-1.7.7-5.3 1.2-2.8-2-2.1-3.3.8-.6 1.4-1.6 2.5-2.2 2.5-.6 0-.5-1.1.4-2.9 1.2-2.2 1.2-3.1.3-4.1-1-1-.6-1.1 1.8-.6 1.7.4 3.2 1.2 3.3 1.7zm-91.8-.2c-1.5.4-2.6 1.5-2.8 2.8-.3 2.3 1.8 3.6 3.9 2.2 1.2-.7 1.2-1 .1-1.8-1.1-.6-1-1 .4-1.5 1.6-.6 3.3.7 3.4 2.5 0 1.5-6.3 3.2-7.9 2.2-3.8-2.4-1.9-7.4 2.8-7.2l2.6.1-2.5.7zm-7.5 3.1c-.3.5-1.2 1-2 1s-1.7.5-2.1 1.1c-.4.8.4.9 2.7.5 3-.5 3.2-.5 1.2.6-1.3.6-2.3 1.5-2.3 2 0 1 1.1 1 3-.1.8-.6 1.8-.7 2.3-.4 1 .6-3 3.2-5 3.3-1.1 0-4.9-5.8-4.1-6.4 2.7-2.2 7.4-3.4 6.3-1.6zm109.5.6c0 1.2-4.2 7.5-4.7 7-.9-.9 2.1-7.6 3.4-7.6.7 0 1.3.3 1.3.6zm4 2.4c0 2.3-2 7-3.1 7-.4 0-.5-1-.2-2.3.5-2.2.5-2.2-1-.2-1.1 1.3-1.6 1.5-1.7.7 0-1.5 4.1-7.1 5.3-7.1.4-.1.7.8.7 1.9zm5.5 4.4c.1 4.3-.7 5.2-2.5 3.1-1-1.2-1.6-1.3-2.6-.4-2.1 1.7-1.7-.1.9-3.8 2.8-4.1 4.2-3.7 4.2 1.1zm-130.3-.9c.9 2 1.6 2.4 3.7 1.9 2.5-.5 2.5-.5.7 1-2.9 2.3-4.4 2-6.1-1.4-1.8-3.4-1.8-4-.5-4 .6 0 1.6 1.1 2.2 2.5zm135.8 1.2l.1 2.8 1.3-2.4c1.9-3.3 2.6-1.3 1 2.6-1.7 4-3.4 4.3-3.5.5 0-2.7-.1-2.7-1.1-.5-1.8 3.7-2.6 2.6-1.5-1.7 1.3-4.6 3.7-5.4 3.7-1.3zm-143.5 1.2c1.1 2.3 2 2.8 3.7 2.4 2.9-.7 1.3 1.2-1.8 2.1-1.6.5-2.3 0-3.2-1.9-1.2-2.6-1.6-5.5-.7-5.5.2 0 1.1 1.3 2 2.9zm151.9-1.3c2 .8 2.1 5.7.1 7.4-.8.6-2.3.9-3.5.5-1.8-.6-2-1.2-1.4-3.8 1-5 1.5-5.4 4.8-4.1zm-155.5 2.6c.6 1.6.4 2.8-.7 4-2.7 3.2-8.2 1.7-8.2-2.2 0-4.3 7.4-5.7 8.9-1.8zm160.1 1.7c-.8 2.8-.5 4.1 1 4.1.4 0 1-1.4 1.4-3 .3-1.7 1.1-3 1.7-3 1.4 0 .3 5-1.6 6.9-3 3.1-5.8-1.4-3.9-6.3 1.1-2.8 2.3-1.7 1.4 1.3zm-171-.8c0 .6-.7.8-1.6.5-2.1-.8-4.5 1.1-3.7 3 .6 1.7 3.5 1.8 5.1.2.9-.9 1.2-.8 1.2.4 0 1.6-2 2.8-4.5 2.8-1.5 0-4.5-2.7-4.5-4 0-.5.7-1.6 1.6-2.4 1.8-1.8 6.4-2.2 6.4-.5zm83.9 3.7c1.5 2.1 2.8 2.9 5.2 2.9 3.7 0 5 1.3 12.4 13.2 4.7 7.6 7.5 10 7.5 6.6 0-.9-1.2-3.4-2.6-5.6-1.4-2.3-2.4-4.2-2.2-4.3 1.5-.7 13.9-4.6 14.9-4.6 1.2 0 10.9 9.9 14.3 14.6 1 1.4 4.2 3.7 7 5 2.8 1.3 5.8 2.9 6.7 3.6 1.4 1 3.3-.3 12.2-8 5.8-5.1 10.8-9.2 11.2-9.2.3 0 .5 1 .3 2.2-.2 1.6-12 12-38.3 34.1-20.9 17.4-39.3 32.8-40.9 34l-2.9 2.3 43 34.7c35.4 28.7 43.1 35.3 44.2 38.3.7 1.9 1.1 3.7.8 4-.2.2-20.4-16.1-44.8-36.2-24.4-20.2-44.9-37-45.4-37.5-.7-.5-19.5 14.2-47 36.5-25.3 20.6-46.1 37-46.3 36.6-.2-.4.3-2.1 1-3.8 1.4-3.1 8.4-9.1 56.3-48 16.5-13.5 30.1-24.9 30.2-25.6.1-.6-18.2-16-40.7-34.1-36.2-29.1-41-33.3-41-35.8 0-4.7 2.8-4.6 7.3.2l3.9 4.3 9.2-3.2c5-1.7 11.9-4.7 15.4-6.6 3.4-1.9 6.5-3.4 6.8-3.4.3 0 1.6 2.6 3 5.7s3.8 7.2 5.2 8.9c1.5 1.8 3.4 4.3 4.4 5.6 1.2 1.8 1.9 2 2.8 1.1 1-.9.8-2-1-4.8-1.3-2-3.2-4.5-4.3-5.6-2.3-2.1-3.4-1.4 10.3-6.6 5-1.9 7.8-3.8 12.2-8.4 3.1-3.2 6.1-5.9 6.6-5.9.6 0 2 1.3 3.1 2.8zM153 247.1c3.4 6.1 3.6 16.6.3 22.2-1.3 2.1-2.3 4-2.3 4.3 0 .2 5.2.4 11.6.4h11.6l4.4-4.5c3.3-3.4 5.1-4.5 7.4-4.5 5 0 7 1.6 7 5.5 0 4.3-5.2 8.9-13 11.2-3 .9-6.4 2.5-7.6 3.5-1.7 1.5-3.8 1.8-13 1.8-7-.1-11.4-.5-12.4-1.3-1.6-1.2-5-6.2-5-7.2 0-.3 7.7-.5 17.1-.5 14.8 0 17 .2 16.5 1.5-1.7 4.4 12.6-2 15.1-6.8 1.5-2.9 1.5-3.2-.7-4.9-3.2-2.6-4.6-2.3-9.3 2.2l-4.2 3.9 2.8.1c1.7 0 2.7.5 2.7 1.5 0 1.3-3.2 1.5-23 1.5-19.2 0-23-.2-23-1.4 0-.8.6-1.6 1.3-1.9.9-.3.7-.9-.6-2.4-2.8-3.3-4.3-12.2-2.9-18.2 1.5-6.5 3.8-10 7.6-11.6 4.5-1.9 8.5 0 11.6 5.6zm108 1.4c0 1.3.3 3.2.7 4.2.5 1.4 1 .7 1.9-2.7l1.2-4.5.1 4.7c.1 5.1 2.1 6.8 2.1 1.9 0-1.7.4-3.2.9-3.5.5-.3.7-1.6.3-2.8-.3-1.5-.2-1.9.7-1.4.8.5.9 2.3.5 5.7-.8 5.8 0 6.3 2.1 1.2.8-2 1.8-3.3 2.1-3 .4.4.1 2-.6 3.6-.6 1.7-1 3.6-.7 4.3.3.8.8.4 1.5-1.2 1.1-2.9 5.2-6.9 5.2-5.1 0 .6-1 2.5-2.2 4.1-1.2 1.6-1.8 3.3-1.4 3.7.4.4 1 .3 1.4-.2 1.3-1.8 6.2-5.9 6.2-5.2 0 .4-1.6 2.5-3.6 4.7s-3.2 4-2.7 4 1.4-.5 1.9-1c1.9-1.9 8.5-4.9 8.1-3.7-.2.7-1.3 1.7-2.4 2.2-2.8 1.4-5.3 3.6-5.3 4.5 0 .4 1.9.1 4.1-.7 5.5-1.8 6.3-.8 1 1.3-2.2.9-4.1 2.1-4.1 2.6 0 .6.8.7 1.8.3.9-.4 3.5-.9 5.7-1.1 3.7-.3 3.9-.2 2.1 1.1-1.1.8-2.7 1.3-3.6 1-.9-.3-2.5.2-3.6 1-1.8 1.3-1.5 1.4 3 1.5 5.1 0 5.7 1.3.8 1.6-1.5.1-3.5.2-4.5.3-1 0-1.6.5-1.3 1 .3.4 1.6.6 3 .4 1.3-.3 2.7 0 3 .6.4.6 1.7 1.1 2.9 1.1 2 .1 2 .2.4 1.1-.9.5-2.2.7-2.9.3-1.3-.8-6.8-1.6-6.8-.9 0 .3 1.8 1.4 4.1 2.5 5.2 2.7 4.6 3.5-1.1 1.5-4.5-1.6-7.1-1.3-2.9.4 3.1 1.2 6.5 5.1 4.5 5.1-.7 0-1.9-.6-2.5-1.4-1.3-1.5-5.1-2.8-5.1-1.7 0 .4 1.4 2 3 3.6 1.7 1.6 3 3.3 3 3.9 0 .5-1.8-.7-4-2.9-2.2-2.1-4.3-3.5-4.7-3.1-.5.4-.1 1.3.8 1.9 1.6 1.3 5.2 7.8 4.5 8.4-.2.2-1.8-1.4-3.6-3.7-1.8-2.3-3.4-3.9-3.6-3.7-.2.2.3 2.1 1.1 4.2 2.3 5.4 1 5.6-1.7.1-1.2-2.5-2.6-4.6-3-4.6-1.2 0-1 1.8.3 2.5.5.4.9 1.7.7 2.8-.1 1.2.1 2.8.6 3.5.4.7.5 1.6.1 2-.9 1-2.2-1.6-2.9-6-.8-5-2.6-4-2.7 1.5l-.1 4.2-.9-4.4c-1-5.4-1.9-6.5-1.9-2.3 0 1.7-.4 3.3-1 3.7-.5.3-.7 1.2-.4 1.9.3.8 0 1.7-.6 2.1-.9.6-1-.8-.5-5.4.4-3.3.4-6.1.1-6.1-.3 0-1.4 2.1-2.6 4.7-2.5 5.7-3.6 5.2-1.5-.7 1.8-5 1.8-5 .5-5-.5 0-1 .7-1 1.5s-.9 2.3-2 3.2c-1.1 1-2 2.3-2 3 0 .7-.4 1.3-1 1.3-1.1 0-.2-2.8 1.5-5 .7-.8 1.6-2.6 2-4 .7-2.4.6-2.4-2.7.7-4.8 4.6-5.6 4.1-1.4-.9 3.9-4.5 4.1-6.5.3-3-1.3 1.2-2.7 2.2-3.2 2.2s-1.7.7-2.7 1.7c-1 .9-1.8 1.1-1.8.5 0-.6 1.8-2.5 4-4.2 2.3-1.8 3.9-3.4 3.7-3.6-.2-.2-2.3.3-4.7 1.1-6 2.1-6.3 1.8-.7-1.1 5-2.6 6.2-4.1 2.5-3-1.3.4-3.8.8-5.6 1-2.8.4-3.1.2-2.1-1.1.7-.8 2-1.2 2.9-1 .9.2 2.8-.2 4.1-.9 2.4-1.3 2.4-1.3-1.1-1.4-1.9 0-4.2-.5-5-1-1.1-.7 0-1 3.8-1 6.6 0 6-1.5-1-2.4-3.7-.5-4.8-1-3.8-1.6.8-.5 3.2-.7 5.3-.3 2 .3 3.7.3 3.7 0 0-.4-1.7-1.5-3.7-2.6-4.5-2.4-3.1-2.7 2-.6 4.2 1.7 4.7 1.8 4.7.6 0-.5-1.3-1.4-3-2-1.6-.5-3-1.4-3-1.9s-1-1.4-2.2-2c-1.8-.8-1.9-1.1-.6-1.1.9-.1 3.4 1 5.4 2.4 4.8 3.3 5.6 2.4 1.6-1.8-4.6-4.8-3.9-5.8.8-1.2 2.2 2.1 4.3 3.5 4.7 3.1.5-.5-.2-1.5-1.4-2.3-1.3-.9-2.3-2.3-2.3-3.2 0-.9-.6-2.3-1.2-3-1.1-1.1-1-1.3.1-.9.8.2 1.9 1.3 2.5 2.3 1.1 2 3.9 4.6 4.4 4.1.1-.2-.4-2.2-1.3-4.5-1.7-4.9-.1-4.5 2 .5.8 1.9 1.9 3.4 2.6 3.4.9 0 .9-.3 0-1.4-.7-.8-1.4-3.3-1.5-5.5-.3-3.4-.1-3.9 1-3 .8.6 1.4 2.2 1.4 3.4zm.5 69.9c19.3 15.9 35.9 29.7 36.9 30.7 2 1.8 2 1.9 0 4-1 1.2-5.9 5.3-10.9 9.1-47.1 36.6-96.4 39.3-143.1 7.9-10.2-6.8-23.6-17.9-23.2-19.1.2-.4 20.5-17.2 45.3-37.3l44.9-36.5 7.6 6.2c4.1 3.4 23.3 19.2 42.5 35zM168 289c0 .6-3.5 1-8.4 1-4.7 0-8.8-.5-9.1-1-.4-.6 2.7-1 8.4-1 5.4 0 9.1.4 9.1 1zm-.1 4.7c1.7 1 3.1 2.1 3.1 2.5 0 .5-5.5.8-12.2.8-10.9-.1-12.1-.2-10.3-1.5 1.1-.8 2.5-1.9 3-2.4 1.7-1.7 13-1.3 16.4.6zM126 361.3c15.1 14.5 35.7 25.7 55.9 30.4 18.5 4.3 16.9 3.8 14.5 5.1-1.6.8-3.8.7-9.5-.4-24.5-5-50-18.5-65.8-34.7-4.5-4.6-5.9-7.7-3.4-7.7.3 0 4 3.3 8.3 7.3zm179.6-6.1c1 1.6-12.8 14.5-22.4 21-13.6 9.2-30.3 16.2-47.6 19.9-7.9 1.8-9.1 1.8-10.4.5-1.7-1.7-2.2-1.5 9.6-3.6 21-3.8 45.2-16.4 60.7-31.7 7.2-7.2 8.9-8.1 10.1-6.1zM108.7 360c.3 1.1 1 2 1.5 2 1.1 0 4.7 4.1 4.8 5.4 0 .6-1 2.1-2.2 3.5-1.9 2.1-1.7 2 1-.3 3.7-3.5 4.4-2.1.7 1.4l-2.6 2.4-3.6-3.7-3.7-3.6 2.4-2.7 2.5-2.7-2.6 1.7c-2.5 1.6-5.9 1.3-5.9-.4 0-1.1 4.9-5 6.2-5 .6 0 1.2.9 1.5 2zm205.4-.7c-1.5 1.9-.1 3 1.7 1.4 1.3-1 1.4-.8.7 1.2-.6 2.1-.5 2.2 1.7 1.6 2.2-.7 2.2-.6.6 1.1-1.7 1.7-1.9 1.7-4.8-1.1-2.3-2.2-2.7-3.2-1.9-4.2.6-.7 1.6-1.3 2.1-1.3.7 0 .6.5-.1 1.3zm-3.4 4.8c-2 1.2-1.5 2.4 1.5 4 1.8 1 2 .9 1.5-.5-.4-.9-.2-1.6.3-1.6 1.7 0 2 1.8.5 3-1.2 1-2 .9-4-.4-3.5-2.3-3.3-5.6.4-5.6 1.3.1 1.3.2-.2 1.1zm-1.7 5.4c1.3 1.4 2.1 2.7 1.8 3-.2.3-1.7-.9-3.3-2.5-1.6-1.7-2.4-3-1.9-3 .6 0 2.1 1.1 3.4 2.5zm-2.5 2.5c1.7 3.3 1.8 4 .6 4-1.3 0-6.3-4.2-5.7-4.8.3-.3 1.6.3 2.8 1.4l2.2 1.9-1.7-2.8c-1-1.5-1.3-2.7-.7-2.7.5 0 1.6 1.3 2.5 3zM121 372c0 1.5-1.8 2.1-2.3.8-.3-1-1-.8-2.3.5-1.6 1.5-1.7 1.9-.4 2.7.8.5 1.8.6 2.3.3.5-.3 1.4.1 1.9.8.8 1.1.9 1 .4-.3-.3-1-.1-2 .5-2.4 1.7-1 2 .1.8 3.4-1.1 3.3-2.9 4.3-2.9 1.7 0-.8-.6-1.2-1.3-.9-.7.2-2.1-.4-3.1-1.5-1.7-1.9-1.7-2.1.7-4.5s5.7-2.7 5.7-.6zm181.7 3.6c1.3 1.4 2.1 2.9 1.8 3.3-.4.3-1.8-.7-3.1-2.2-1.3-1.5-2.4-2.3-2.4-1.7 0 .6.7 1.8 1.5 2.6 2 2.1 2 4-.1 2.4-2.1-1.9-3.6-4.9-2.9-6 1-1.6 2.6-1.1 5.2 1.6zm-171.8 4.3c4.3 3.8 4.3 3.8 2.6 6.5-2.1 3.2-3.6 3.3-7.2.2l-2.8-2.4 2.3-2.5c1.4-1.4 1.9-2.8 1.4-3.1-.6-.3-1.9.6-3 2.1-1.1 1.6-2.3 2.5-2.6 2.2-.6-.5 3.5-6.9 4.4-6.8.3 0 2.5 1.7 4.9 3.8zm164.3-2.7c-1.9 1.9-1.4 3 1 2.2 1.9-.6 2.1-.5 1.1.8-1.5 1.8-.7 2.9 1.5 2 1.5-.5 1.5-.4.2 1.2-1.4 1.7-1.6 1.7-4.2-1.5-2.1-2.5-2.5-3.6-1.7-4.6.7-.7 1.6-1.3 2.2-1.3.7 0 .7.4-.1 1.2zM291 381c0 .5-.6 1.1-1.2 1.1-.7.1.1.4 1.7.8 3.4.7 4.3 4.3 1.3 4.9-1 .2-1.8-.1-1.8-.7s.5-1.1 1.1-1.1c.5 0 .8-.4.4-1-.3-.5-1.2-.7-1.9-.4-1.7.7-3-1.2-2.2-3.1.6-1.7 2.6-2 2.6-.5zm-151.1 4.9c1.1.7 1.1 1-.1 1.7-.8.5-2.1 2-2.8 3.4-.9 1.6-1.5 2-1.8 1.2-.2-.7.4-2.2 1.3-3.2s1.4-2.4 1-2.9c-.8-1.3.5-1.4 2.4-.2zm142 2.5c.9 1 .9 1.6.1 2.1-.6.4-.8 1.5-.5 2.6 1 3-.8 2.2-2.8-1.3-1.4-2.5-1.5-3.3-.5-3.9 1.8-1.2 2.4-1.1 3.7.5zm-137.2 1.2c.4 1.3-3.4 6.4-4.8 6.4-1.9 0-2.1-3-.4-5.6 1.6-2.5 4.5-2.9 5.2-.8zm132.8 3.5c2.3 4.4 1.2 4.7-1.3.4-1.2-1.9-1.7-3.5-1.2-3.5s1.7 1.4 2.5 3.1zm10.5-1c0 .5-.4.9-1 .9-.5 0-1-.7-1-1.6 0-.8.5-1.2 1-.9.6.3 1 1 1 1.6zm-136.7.9c.8 1.1 1.6 1.8 1.9 1.5.3-.3 1.8 0 3.4.6 1.6.7 3.4 1.3 3.9 1.3.6.1 1.8.6 2.8 1.2 1.5.8 1.6 1.5.7 3.8-1.3 3.5-1.3 3.6.4 3.6.8 0 1.7-1.4 2.1-3 .4-1.7 1.1-3 1.6-3 .6 0 .7.9.3 2.2-.5 1.3-.8 3.3-.7 4.5.1 2-.1 2-3.1.8-1.7-.8-3-1.8-2.9-2.2.1-.5.5-2.1.8-3.6.6-2.1.4-2.7-1-2.7-1.1 0-1.5.5-1.1 1.5.3.8.1 1.5-.5 1.5s-.8.9-.4 2c.5 1.5.3 1.8-.9 1.4-1.9-.7-1.9-.6-.7-3.8 1.4-3.6-1.1-5.6-2.7-2.1-1 2.1-.9 2.5.5 2.5 1.3 0 1.4.3.5 1.2-2.1 2.1-3.8-.6-2.4-3.7 1.6-3.4 1.5-4-.3-2.5-.8.7-1.5 2.2-1.5 3.4 0 1.2-.4 1.6-.8 1.1-.4-.6-1.8-1.2-3.1-1.2-3.7-.3-4.4-1.7-2.4-5.1 2.1-3.7 3.6-4 5.6-1.2zm123.2 1.1c.9 1.7 1.4 3.3 1.1 3.6-.3.3-.8-.2-1.2-1.1-.9-2.3-2.3-1-1.8 1.7.3 1.3-.3.7-1.6-1.6-1.2-2.2-1.9-4.1-1.6-4.4.3-.3.8.2 1.2 1.1.9 2.3 2.7 2 1.9-.4-1-3 .2-2.4 2 1.1zm-7.2.6c-1.9.7-1.5 2 .8 2.6 1.3.4 2 1.2 1.7 2.4-.3 1.9-3.8 3.2-3.8 1.4 0-.6.8-1.1 1.8-1.1 1.2-.1.9-.5-1-1.6-3.7-2-3.6-4.5.1-4.3 1 0 1.2.2.4.6zm-3.7 5.1c.7 1.8.9 3.2.4 3.2-.6 0-1-.5-1-1 0-.6-.5-1-1.1-1-.6 0-.9.7-.5 1.5 1.1 2.9-1.2 1.4-2.4-1.6-1.1-2.6-1.1-3.2.1-4 2.1-1.3 2.9-.7 4.5 2.9zm-54.8-1.6c2.7 2.7.2 7.7-2.8 5.8-1.2-.8-1.2-1 .4-1s1.6-.2-.4-1.8c-1.3-1.1-2-2.4-1.6-3 .9-1.5 2.9-1.5 4.4 0zm7 1.8c-.1 3.6-2 5.6-3.6 3.8-1.6-2-.3-6.8 1.8-6.8 1.4 0 1.8.7 1.8 3zm39.6-.5c-.4.8-.1 1.5.6 1.5s.9.8.5 2.2c-.6 1.7-.4 2 .9 1.5.9-.4 1.6-.2 1.6.2 0 .5-.7 1.2-1.6 1.5-1.1.4-1.9-.4-3-3-1.4-3.4-1.2-5.4.6-5.4.5 0 .7.7.4 1.5zm-52.4 5.8c0 .6-1.1 0-2.5-1.5s-2.5-3.3-2.5-4c.1-1.6 5 3.9 5 5.5zm19.8-5.1c.8.8.6 1.8-1 4-1.8 2.6-2.2 2.8-3.5 1.5-1.3-1.3-1.3-1.8.2-4.1 1.9-2.9 2.6-3.1 4.3-1.4zm-45.8 3.2c-.1.6-.7 2.2-1.6 3.6-1.4 2.5-1.4 2.4-.8-1.3.5-3.1.3-3.7-1.1-3.7-1.1 0-1.5.5-1.2 1.4.3.8.1 1.7-.6 1.9-.9.3-.8.8.2 2 1.4 1.8 1.2 2-1.2 1.1-1.2-.4-1.3-1.2-.7-3.4 1.3-4.6 1.8-5 4.5-3.8 1.4.6 2.5 1.6 2.5 2.2zm75.2-1c1.3 2.9.5 5.6-1.7 5.6-1.7 0-3.9-4.6-3.1-6.7.9-2.1 3.6-1.5 4.8 1.1zm-14.2 2.1c-1 1.2-.9 1.5.5 1.5s1.5.3.5 1.5-1 1.5.4 1.5c.9 0 1.6.4 1.6 1 0 1.6-3.7 1.1-4.4-.6-1-2.6-.7-6.2.7-6.7 1.8-.6 2.1.1.7 1.8zm7.9 1.1c2.1 3.5 2.1 3.5.1 2.9-1.1-.4-2-.2-2 .4 0 .6-.4 1.1-1 1.1-.5 0-1-1.1-1-2.5 0-1.9.4-2.3 1.8-1.9 1.6.5 1.6.5 0-.6-1.9-1.2-2.4-3-.9-3 .5 0 1.9 1.6 3 3.6zm-59.4-1.7c1.7.1 1.8.3.5 1.1-1.3.9-1.3 1.1 0 1.9 1.2.9 1.2 1.1-.3 1.7-1.4.5-1.5.9-.6 2s.8 1.4-.5 1.4c-.9 0-1.6-.5-1.6-1.1 0-.8-.4-.8-1.4 0-1.9 1.6-3.7-.7-3-4 .4-2.1.3-2.1-.7.3-.6 1.6-1.5 2.8-2 2.8-1.2 0-1.2-1.7.1-2.5.6-.3 1-1.5 1-2.5 0-1.5.7-1.8 3.3-1.6 1.7.2 4.1.4 5.2.5zm45.5 2c0 1.1.7 2.6 1.5 3.5 1.9 1.9 1.9 2.6 0 2.6-1.6 0-1.9-.5-2.9-5.3-.4-1.5-.2-2.7.4-2.7.5 0 1 .9 1 1.9zm-42 6.1c0 .5-.5 1-1.1 1-.5 0-.7-.5-.4-1 .3-.6.8-1 1.1-1 .2 0 .4.4.4 1z"/><path d="M183 150.1c0 .5.5.7 1 .4.6-.3 1-.8 1-1.1 0-.2-.4-.4-1-.4-.5 0-1 .5-1 1.1zM248 167.1c0 .5.5.7 1 .4.6-.3 1-.8 1-1.1 0-.2-.4-.4-1-.4-.5 0-1 .5-1 1.1zM275.5 177c-.3.5-.1 1 .4 1 .6 0 1.1-.5 1.1-1 0-.6-.2-1-.4-1-.3 0-.8.4-1.1 1zM290 179.8c0 .6-.3 1.7-.6 2.6-.4 1.1-.1 1.6 1 1.6.9 0 1.6-.7 1.6-1.5s0-1.8.1-2.2c0-.4-.4-.9-1-1.1-.6-.2-1.1.1-1.1.6zM131.1 180.4c-1.6 1.9-.6 3.6 2 3.6 1.5 0 2-.6 1.7-2.2-.4-2.7-2.1-3.3-3.7-1.4zM203.4 190.7c-3 6.9-4.2 12.3-2.5 12.3.6 0 1.1-.9 1.1-1.9 0-1.1.5-2.3 1-2.6.6-.4.8-1.1.4-1.6-.3-.5.2-2.1 1-3.5 2.6-3.8 3.7-7.2 2.6-7.9-.6-.3-2.1 2-3.6 5.2zM213 190.7c0 1.3 2 3.9 2 2.8.1-.6.7.3 1.4 2 1.2 2.6 7.6 7.7 7.6 6 0-.4-2.1-3.1-4.7-6.1-4.3-5-6.3-6.5-6.3-4.7zM165.5 197.1c.4 1.2.8 2.7.9 3.3.4 2.4 2.8 5.6 3.7 5 .6-.4.5-1.4-.4-2.7-.8-1.2-1.7-3.4-2.1-5-.3-1.5-1.1-2.7-1.7-2.7-.6 0-.8.9-.4 2.1zM241 197.7c-1.9 1.2-2.6 2.4-2.6 4.8 0 2.9.2 3.1 1.8 2.1 1-.6 1.8-1.9 1.8-3s.7-2.8 1.7-3.8c1.9-2.2.8-2.2-2.7-.1zm-.3 4.5c-.3.8-.6.5-.6-.6-.1-1.1.2-1.7.5-1.3.3.3.4 1.2.1 1.9zM246.2 199.1c-1.7 2.7-1.2 3.1 1.2 1.3 1.3-.9 1.6-1.8 1-2.4-.6-.6-1.4-.2-2.2 1.1zM152 202c-3 1.6-4.8 2.9-4 2.9.8.1 2.9-.8 4.5-1.9 5.1-3.4 5.1-2.2.1 2.9-2.7 2.8-4.3 5.1-3.8 5.5.6.4 1.5.1 2.1-.6.5-.7 2.6-3.2 4.5-5.4 3.4-3.9 4.5-6.5 2.9-6.4-.5.1-3.3 1.4-6.3 3zM207.6 214c-2.6 2.2-5 4-5.2 4-.2 0-2.9-1.5-6.1-3.4-4.7-2.8-6.1-3.2-7.3-2.2-2.9 2.3-9.1 4.6-12.5 4.6-8.9 0-20.9 5.2-18 7.8.6.5 12.6 10.5 26.8 22.1 22.9 18.9 26 21.1 27.5 19.9 2.7-2.1 3-2.8 3.2-8.2.4-9.7.3-10.6-2.3-14.4-2.4-3.4-2.6-4.3-2-10.4.6-6.6.5-6.7-2.8-9.7-3.6-3.4-3.3-3.9.9-1.7 5.4 2.8 6.5 5 5.8 11.4-.6 5.6-.5 6.1 2.6 10.2 5.7 7.4 8.8 10.2 10.3 9.6 1.5-.5 38.5-31.4 38.5-32.1 0-.2-1.7-.9-3.7-1.5-2.1-.7-5.5-2.6-7.6-4.2-3.8-2.9-3.8-2.9-8.2-1.4-4.4 1.4-4.6 1.4-7.6-1.1s-3.2-2.6-6.3-1.1c-8.5 4.1-8.2 4.1-12.2 2.7-2.2-.7-4.8-2.1-6-3.1-1.1-1-2.2-1.8-2.5-1.8-.2 0-2.6 1.8-5.3 4zM139.4 245.2l-1.9 2.3 2.3-1.9c2.1-1.8 2.7-2.6 1.9-2.6-.2 0-1.2 1-2.3 2.2zM148 244.4c0 .2.8 1 1.8 1.7 1.5 1.3 1.6 1.2.3-.4s-2.1-2.1-2.1-1.3zM137.9 269.8c.6 1.2 1.6 2.4 2.2 2.8.8.4.8.1 0-1.4-.6-1.2-1.6-2.4-2.2-2.8-.8-.4-.8-.1 0 1.4zM147.4 272.5c-1 .8-1.4 1.5-.8 1.5.6 0 1.7-.7 2.4-1.5 1.6-1.9.9-1.9-1.6 0zM261.2 257.1c-1.9.4-4.7 1.9-6.3 3.5-11.9 11.4 1.5 30.3 16.1 22.5 9-4.8 9.9-18.2 1.6-23.6-3.5-2.4-7.7-3.2-11.4-2.4zm4.1 3.6c-.5 1.3-.2 1.5 1.5 1.1 1.4-.4 2.2-.2 2.2.7 0 .8-.8 1.1-2 .8-1.6-.4-2 0-2.1 1.8v2.4l-1-2.3c-.7-1.8-1.4-2.2-2.9-1.7-1.4.5-2 .2-2-1 0-1.1.6-1.4 2.5-.9 2 .5 2.4.3 1.9-1-.4-1.1-.1-1.6 1-1.6 1 0 1.3.5.9 1.7zm-8.8 11.3c0 2.7-.4 5-1 5-.5 0-1-2.3-1-5 0-2.8.5-5 1-5 .6 0 1 2.2 1 5zm5.5-3c0 2.5 2 2.7 2.1.2.1-1.6.2-1.6.6 0 .2 1 .9 1.8 1.5 1.8s.8-.9.5-2c-.3-1.1 0-2 .6-2 .8 0 1.1 1.7.9 5-.2 2.7-.8 5-1.3 5s-.8-1-.6-2.2c.1-1.7-.3-2.2-1.8-2.2s-1.9.5-1.8 2.2c.2 1.2-.3 2.2-1 2.2-.8 0-1.2-1.7-1.2-5 0-2.8.3-5 .8-5 .4 0 .7.9.7 2zm10.5-.9c-.4.5.5 2.1 2 3.5 2.2 2 2.5 2.7 1.5 3.9-.7.8-1.8 1.5-2.4 1.4-.7 0-.6-.2.2-.6 1.9-.7 1.4-3.1-.7-3.8-3.1-.9-3.9-5.5-1-5.5.6 0 .7.5.4 1.1zm3.5-.1c0 .5-.2 1-.4 1-.3 0-.8-.5-1.1-1-.3-.6-.1-1 .4-1 .6 0 1.1.4 1.1 1zm-4 8.1c0 .6-.4.7-1 .4-.5-.3-1-1.1-1-1.6 0-.6.5-.7 1-.4.6.3 1 1.1 1 1.6zm-6.5 2.8c.3.5.1 1.2-.5 1.6-.5.3-1-.1-1-.9 0-1.8.6-2.1 1.5-.7zm-4 3.1c.3.5.2 1-.4 1-.5 0-1.3-.5-1.6-1-.3-.6-.2-1 .4-1 .5 0 1.3.4 1.6 1zm8 0c-.3.5-1.1 1-1.6 1-.6 0-.7-.5-.4-1 .3-.6 1.1-1 1.6-1 .6 0 .7.4.4 1zM207.6 303.5c-1.1.8-2.9 1.2-4.2.9-2.7-.7-8 1.9-9.5 4.8-1.5 2.7-.7 23.4 1 26.6 2.1 3.9 2.9 1.6 3-9.3.2-11.9.6-13.5 3.1-13.5 3.1 0 4.1 2.6 5.4 14.7 1.4 12.7.8 18.3-1.4 12.8l-1.1-3-1.9 2.5c-1.7 2.2-1.9 2.3-2.5.7-1-2.4-2.1-2.1-2.9.5l-.6 2.3-1.4-2.5-1.4-2.5-1.1 2.7c-1.1 3-3.1 3.8-3.1 1.3 0-.8-.4-1.5-.9-1.5-1 0-3.1 5.4-3.1 8.1 0 .9-.6 1.9-1.2 2.1-2.9 1 9.7 13.4 18.1 18 3.6 2 5.1 5.2 5.1 11.3 0 3.5.5 4.7 2.1 5.5 3.4 1.9 5.6-1 6.1-8.2.3-4.6.9-6.5 2.3-7.2 8-4.8 14-9.5 17.5-13.9 2.3-2.8 3.7-5.3 3.1-5.5-.6-.2-1.1-1-1.1-1.8s-.7-3.1-1.5-5.1c-1.4-3.4-1.6-3.5-2.9-1.8-1.3 1.8-1.4 1.7-2.9-1.1l-1.6-2.9-.7 2.4-.7 2.4-1.8-2.4c-1.6-2.1-1.8-2.2-2.4-.6-.9 2.1-2.5 2.3-2.5.3 0-2.8-1.9-2.7-3.4.1l-1.5 2.8-.1-4.5c0-5 1.7-21.5 2.6-24.3.7-2.1 5-2.3 5.8-.1.3.9.6 5.5.7 10.2.1 4.8.4 9.8.8 11.1.6 2.2.7 2.3 2.1.6 1.1-1.3 1.6-5.1 1.8-14 .4-11.7.3-12.3-2-15-2-2.3-3.4-2.9-7.2-3-2.6-.1-5.2-.7-5.9-1.4-1.5-1.5-3.8-1.3-6.1.4zm5.7 1.9c1.2.8 3.9 1.4 6.1 1.3 6.1-.2 7.6 2.5 7.4 13.2-.1 6.8-.2 7.4-.5 2.6-.4-8.5-.9-10-3.8-11.3-2.1-1-2.8-.8-5 1.1-2.3 2-2.6 3.5-4 16-.8 7.7-1.5 14.5-1.5 15.3 0 .8-.4 1.4-.9 1.4-.4 0-1.4-6.3-2.1-14-1.4-14.8-2.2-17.4-5.6-19.7-1.8-1.2-2.4-1.1-4.7.7-2.3 1.8-2.7 3-3 8.8l-.3 6.7-.2-8.1c-.2-10.1 1.3-12.9 7.4-12.7 2.1.1 4.7-.5 5.8-1.3 2.5-1.7 2.2-1.7 4.9 0zM210 348c0 1.4-1.8 1.2-2.3-.3-.3-.9-.8-.9-1.7-.1-1.2 1.2-5 .7-5-.7 0-1.1 5.2-1.6 7.3-.7.9.5 1.7 1.3 1.7 1.8zm11-.8c0 .6-1.4.8-3.4.5-2.2-.4-3.6-.1-3.9.6-.2.7-.8.9-1.2.5-.4-.4-.3-1.3.3-2.1 1.3-1.5 8.2-1.1 8.2.5zM104.4 361.4c-1 .8-1.5 1.8-1.1 2.2.4.4 1.7-.2 3-1.4 2.4-2.5 1.2-3-1.9-.8zM109.9 363.5c-.1.6-.1 1.3 0 1.7 0 .5-.6.8-1.4.8-.8 0-1.5.7-1.5 1.5 0 2.1 1.4 1.9 3.5-.5 1.4-1.6 1.6-2.3.7-3.2-.7-.7-1.3-.8-1.3-.3zM110.5 369c-1 1.1-1.4 2-.8 2 .5 0 1.8-.9 2.8-2 1-1.1 1.4-2 .8-2-.5 0-1.8.9-2.8 2zM128.4 381.5c.3.9 0 1.5-.9 1.5-1.7 0-2 1.6-.4 2.5.6.4 1.7-.1 2.4-1.1 1.9-2.5 1.8-3.1-.1-3.8-1.2-.4-1.5-.2-1 .9zM130.2 385.1c-1.7 2.7-.5 4 1.4 1.5.8-1.1 1.4-2.3 1.4-2.8 0-1.5-1.5-.8-2.8 1.3zM279 388.9c0 .5.5 1.3 1 1.6.6.3 1 .2 1-.4 0-.5-.4-1.3-1-1.6-.5-.3-1-.2-1 .4zM141.3 390.2c-1.9 2.5-2.4 3.8-1.4 3.8 1.1 0 3.5-3.9 2.8-4.6-.2-.3-.9.1-1.4.8zM148.4 394.6c.3.8.2 1.2-.3.9-.5-.3-1.3 0-1.7.6-.9 1.6 1.8 3 3.3 1.7 1.8-1.5 1.6-4.8-.3-4.8-1 0-1.4.5-1 1.6zM260 398.6c0 .8.5 1.2 1 .9.6-.4.8-1.1.5-1.6-.9-1.4-1.5-1.1-1.5.7zM206 399c0 .5.5 1 1.1 1 .5 0 .7-.5.4-1-.3-.6-.8-1-1.1-1-.2 0-.4.4-.4 1zM249 402.7c0 1 .5 2.5 1 3.3.8 1.2 1 .9 1-1.2 0-1.5-.4-3-1-3.3-.5-.3-1 .2-1 1.2zM181.1 406.2c-.5 1.3-.7 2.6-.5 3 .8 1.3 3.4-.4 3.4-2.2 0-2.9-1.9-3.4-2.9-.8zM368.6 217.5c-6 9.1-11.5 18.4-12.4 20.8-4.2 11.7 4.4 23.9 17 23.9 10.2 0 17.5-8.7 16.6-19.9-.5-6.1-2.7-9.6-8.1-13.2-2-1.3-3.7-3.2-3.7-4.1 0-.9 2.3-5.1 5-9.5 2.8-4.4 5-8.2 5-8.6 0-.5-7.5-5.9-8.2-5.9-.2 0-5.2 7.4-11.2 16.5zM492.5 202c-34.3 4.8-61 26.8-71.7 59-3 9.1-3.2 10.2-3.2 26-.1 19.1.9 24.1 7.9 38.7 10.8 22.2 31 38.8 55.5 45.6 11 3 36.1 3 47.5-.1 26.3-7.2 45.6-25.4 53.3-50.4 2.7-8.8 4.5-25.7 3.5-32.8l-.8-5.5h-78v21l26.5.5 26.5.5-.1 3.5c-.4 10.1-9.3 24-20 31.2-10.4 7.1-20.3 10-33.9 10.1-19.1.1-32.6-5.3-45.1-17.8-12.7-12.8-18.1-27.7-17.2-47.4 1.7-34.2 26.7-58.2 60.7-58.1 15.5 0 26.3 3.5 38 12.2l5.3 4 8.7-8.6 8.6-8.7-5-4.4c-7.2-6.3-22.5-14.1-32.6-16.5-9.7-2.3-25.8-3.3-34.4-2zM624.7 202.4c-7.3 2.7-11.7 9-11.7 16.8 0 5.7 2.7 10.6 7.9 14.1 2.2 1.6 4.1 3.6 4.1 4.5 0 .9-2.3 5.1-5 9.2s-5 7.8-5 8.1c0 1.3 8.2 6 9 5.2 3.7-3.9 23-35 23.6-37.8.9-4.8-.1-9.2-3.1-13.7-4.2-6.4-12.6-9.1-19.8-6.4zM496 489.5c-8.9 20.8-44 106.4-44 107.3 0 .8 2.2 1.2 6.8 1.2h6.9l22.6-54.8c12.4-30.1 22.9-55.5 23.3-56.5.5-1.5-.1-1.7-6.5-1.7h-7.2l-1.9 4.5zM115 488.1c-6.4.7-13.8 3.7-18.3 7.5-3.7 3.1-9.9 11.4-9.4 12.7.1.5 3.2 2.1 6.7 3.6l6.4 2.7 3.1-4c5.7-7.6 15.8-10.6 24.3-7.1 12.4 5.2 14.7 17.3 5.9 30.5-1.7 2.5-12.9 14.4-24.9 26.6l-21.8 22V598h69v-13h-21.8c-22.2 0-24.2-.3-24.2-3.9 0-.8 7.3-8.9 16.3-18 17-17.4 21.2-22.5 25.4-31.7 3.6-7.8 3.7-18.8.3-25.8-6.1-12.7-20.2-19.4-37-17.5zM388.8 488.2c-23.8 3-38.2 28.1-28.4 49.3 6.2 13.5 20.5 21.6 32.9 18.4 5-1.2 7.7-.3 7.7 2.8 0 .8-5 8.5-11 17-6.1 8.5-11 15.6-10.8 15.8 3.9 3 11.4 7.3 11.9 6.7 3.4-3.5 31.8-45.5 34.9-51.7 9.1-17.8 7.4-36-4.6-48-8.2-8.1-20.1-11.9-32.6-10.3zm14.9 15.4c7.2 2.6 13.3 11.5 13.3 19.4 0 17.5-21.3 27.6-35.9 16.9-14.8-10.7-9.3-34.3 8.9-37.8 5-.9 7.6-.7 13.7 1.5zM559.8 488.2c-10.9 1.4-21.5 8.6-26.3 17.7-1.5 2.9-1.5 3.2.2 3.8 1 .3 4.1 1.6 6.9 2.9l5.2 2.2 3.1-4.5c4.3-6.1 10.4-8.7 18.2-8 10.8 1 16.9 7.1 16.9 16.8 0 10.1-2.5 13.6-28.5 39.9l-23.6 23.7.3 7.4.3 7.4h69l.3-6.3.3-6.2h-22c-18.6 0-22.2-.2-23.5-1.6-.9-.8-1.6-2.1-1.6-2.7 0-.7 7.2-8.4 16.1-17.2 23.4-23.4 29.8-34 28.7-47.9-1.5-18.7-18.3-30.2-40-27.4zM208.3 489.9c-19.4 7.2-30.6 27-30.6 54.1 0 25 10 44.4 27 52.6 7.7 3.7 21.3 4.5 29.4 1.9 11.1-3.7 19.9-11.6 25.5-23 4.5-9.1 6.4-18.5 6.4-31.5 0-5.8-.7-13.7-1.5-17.5-3.3-15.5-12.9-29-25-34.9-5.2-2.6-7.3-3-16-3.3-8-.3-11.1.1-15.2 1.6zm23.8 14.5c14.5 6.9 22.2 30.3 17.4 52.9-3.6 17.1-12.7 27.2-25.5 28.5-18.9 1.8-32.1-17.5-30.8-45.2 1.2-24.5 12.7-39.3 29.8-38.3 3 .2 7.1 1.1 9.1 2.1zM303.3 496.9c-7.8 3.6-14.5 7-14.8 7.3-.6.6 3.1 10.4 4.5 12.1.3.4 4.3-.9 8.7-2.8 8.9-3.9 11.8-4.3 12.7-1.9.3.9.6 20.7.6 44V598h15V490l-6.2.1c-5.6 0-7.8.8-20.5 6.8zM638 497.1c-7.9 3.8-14.6 7.1-14.7 7.3-.3.2 4.4 11.4 5.2 12.4.1.1 4.1-1.4 8.8-3.4 4.7-1.9 9.4-3.4 10.4-3.2 1.7.3 1.8 2.9 2.1 44.1l.2 43.8 7.8-.3 7.7-.3v-107l-6.5-.2c-6.2-.2-7.2.2-21 6.8z"/></svg>