<svg version="1" xmlns="http://www.w3.org/2000/svg" width="682.667" height="682.667" viewBox="0 0 512.000000 512.000000"><path d="M237 96.7c-55 7.2-102.2 41.5-126 91.5-5.8 12.2-8.3 19.6-11.7 33.8-3 13-4.2 40.3-2.4 54.4 3.6 26.5 14.3 53.1 30.3 74.8 8 10.9 25.1 27.7 36.3 35.7 10.2 7.2 31.2 17.7 42.9 21.5 17.8 5.8 26.3 7 50.1 7.1 25 0 36-1.6 54.7-8.1 43.9-15.2 76.3-48.7 90.7-93.8 7-21.8 9.7-51.7 6.7-72.4-.9-6.2-1.9-11.9-2.2-12.7-.5-1.3-10.2-1.5-75.5-1.5H256v60H343.3l-.7 4.2c-1.8 11.2-11 27.4-21.5 37.8-16.8 16.7-36.8 24.3-64.1 24.3-26.6 0-47.4-8.2-66.3-26.2-13.7-13.1-23.2-29.6-27.9-48.8-3.2-13.2-3-33.2.6-46.8 4.6-17.5 11.9-30.5 24.5-43.8 18.3-19.1 41.5-29 68.1-29 22.8.1 40.9 6.3 57.6 19.9l4.2 3.3 22.8-22.2 22.8-22.3-6.9-5.8c-19.8-16.4-42.2-27.2-67.5-32.6-8.3-1.8-14.4-2.3-29.5-2.5-10.4-.2-20.6-.1-22.5.2zM464 376.7c-1.8 3.2-6.2 10.1-9.8 15.3-27.4 40-67.2 71.3-113.2 89.1-5.8 2.2-9.1 3.7-7.5 3.4 5-1.1 24.5-9 34.4-14 40.1-20.1 75.3-53.9 96.6-92.8 2-3.7 3.5-6.7 3.2-6.7-.3 0-2 2.6-3.7 5.7z"/></svg>